<?xml version="1.0" encoding="utf-8"?>
<!-- Generator: Adobe Illustrator 15.0.2, SVG Export Plug-In . SVG Version: 6.00 Build 0)  -->
<!DOCTYPE svg PUBLIC "-//W3C//DTD SVG 1.1//EN" "http://www.w3.org/Graphics/SVG/1.1/DTD/svg11.dtd">
<svg version="1.1" xmlns="http://www.w3.org/2000/svg" xmlns:xlink="http://www.w3.org/1999/xlink" x="0px" y="0px" width="192px"
	 height="174.001px" viewBox="0 0 192 174.001" style="enable-background:new 0 0 192 174.001;" xml:space="preserve">
<style type="text/css">
<![CDATA[
	.st0{fill:#7E131E;}
	.st1{fill:#BB2026;}
	.st2{fill:#F04F50;}
]]>
</style>
<g id="Layer_1">
	<rect x="18" y="12" class="st2" width="18" height="18"/>
	<rect x="54" y="12" class="st2" width="18" height="18"/>
	<rect x="36" y="12" class="st2" width="18" height="18"/>
	<rect y="30" class="st2" width="18" height="18"/>
	<rect x="36" y="30" class="st2" width="18" height="18"/>
	<rect x="18" y="30" class="st2" width="18" height="18"/>
	<rect x="54" y="30" class="st2" width="18" height="18"/>
	<rect x="90" y="30" class="st2" width="18" height="18"/>
	<rect x="72" y="30" class="st2" width="18" height="18"/>
	<rect x="108" y="30" class="st2" width="18" height="18"/>
	<rect x="144" y="30" class="st2" width="18" height="18"/>
	<rect x="126" y="30" class="st2" width="18" height="18"/>
	<rect x="162" y="30" class="st2" width="18" height="18"/>
	<rect x="108" y="12" class="st2" width="18" height="18"/>
	<rect x="144" y="12" class="st2" width="18" height="18"/>
	<rect x="126" y="12" class="st2" width="18" height="18"/>
	<rect y="48" class="st2" width="18" height="18"/>
	<rect x="36" y="48" class="st2" width="18" height="18"/>
	<rect x="18" y="48" class="st2" width="18" height="18"/>
	<rect x="54" y="48" class="st2" width="18" height="18"/>
	<rect x="90" y="48" class="st2" width="18" height="18"/>
	<rect x="72" y="48" class="st2" width="18" height="18"/>
	<rect x="108" y="48" class="st2" width="18" height="18"/>
	<rect x="144" y="48" class="st2" width="18" height="18"/>
	<rect x="126" y="48" class="st2" width="18" height="18"/>
	<rect x="162" y="48" class="st2" width="18" height="18"/>
	<rect y="66" class="st2" width="18" height="18"/>
	<rect x="36" y="66" class="st2" width="18" height="18"/>
	<rect x="18" y="66" class="st2" width="18" height="18"/>
	<rect x="54" y="66" class="st2" width="18" height="18"/>
	<rect x="90" y="66" class="st2" width="18" height="18"/>
	<rect x="72" y="66" class="st2" width="18" height="18"/>
	<rect x="108" y="66" class="st2" width="18" height="18"/>
	<rect x="144" y="66" class="st2" width="18" height="18"/>
	<rect x="126" y="66" class="st2" width="18" height="18"/>
	<rect x="162" y="66" class="st2" width="18" height="18"/>
	<rect y="84" class="st2" width="18" height="18"/>
	<rect x="36" y="84" class="st2" width="18" height="18"/>
	<rect x="18" y="84" class="st2" width="18" height="18"/>
	<rect x="54" y="84" class="st2" width="18" height="18"/>
	<rect x="90" y="84" class="st2" width="18" height="18"/>
	<rect x="72" y="84" class="st2" width="18" height="18"/>
	<rect x="108" y="84" class="st2" width="18" height="18"/>
	<rect x="144" y="84" class="st2" width="18" height="18"/>
	<rect x="126" y="84" class="st2" width="18" height="18"/>
	<rect x="162" y="84" class="st2" width="18" height="18"/>
	<rect x="36" y="102" class="st2" width="18" height="18"/>
	<rect x="18" y="102" class="st2" width="18" height="18"/>
	<rect x="54" y="102" class="st2" width="18" height="18"/>
	<rect x="90" y="102" class="st2" width="18" height="18"/>
	<rect x="72" y="102" class="st2" width="18" height="18"/>
	<rect x="108" y="102" class="st2" width="18" height="18"/>
	<rect x="144" y="102" class="st2" width="18" height="18"/>
	<rect x="126" y="102" class="st2" width="18" height="18"/>
	<rect x="36" y="120" class="st2" width="18" height="18"/>
	<rect x="54" y="120" class="st2" width="18" height="18"/>
	<rect x="90" y="120" class="st2" width="18" height="18"/>
	<rect x="72" y="120" class="st2" width="18" height="18"/>
	<rect x="108" y="120" class="st2" width="18" height="18"/>
	<rect x="126" y="120" class="st2" width="18" height="18"/>
	<rect x="54" y="138" class="st2" width="18" height="18"/>
	<rect x="90" y="138" class="st2" width="18" height="18"/>
	<rect x="72" y="138" class="st2" width="18" height="18"/>
	<rect x="108" y="138" class="st2" width="18" height="18"/>
	<rect x="90" y="156.001" class="st2" width="18" height="18"/>
	<rect x="72" y="156.001" class="st2" width="18" height="18"/>
</g>
<g id="Layer_1_copy">
	<rect x="30" class="st0" width="18" height="18"/>
	<rect x="66" class="st0" width="18" height="18"/>
	<rect x="48" class="st0" width="18" height="18"/>
	<rect x="12" y="18" class="st0" width="18" height="18"/>
	<rect x="48" y="18" class="st0" width="18" height="18"/>
	<rect x="30" y="18" class="st0" width="18" height="18"/>
	<rect x="66" y="18" class="st0" width="18" height="18"/>
	<rect x="102" y="18" class="st0" width="18" height="18"/>
	<rect x="84" y="18" class="st0" width="18" height="18"/>
	<rect x="120" y="18" class="st0" width="18" height="18"/>
	<rect x="156" y="18" class="st0" width="18" height="18"/>
	<rect x="138" y="18" class="st0" width="18" height="18"/>
	<rect x="174" y="18" class="st0" width="18" height="18"/>
	<rect x="120" class="st0" width="18" height="18"/>
	<rect x="156" class="st0" width="18" height="18"/>
	<rect x="138" class="st0" width="18" height="18"/>
	<rect x="12" y="36" class="st0" width="18" height="18"/>
	<rect x="48" y="36" class="st0" width="18" height="18"/>
	<rect x="30" y="36" class="st0" width="18" height="18"/>
	<rect x="66" y="36" class="st0" width="18" height="18"/>
	<rect x="102" y="36" class="st0" width="18" height="18"/>
	<rect x="84" y="36" class="st0" width="18" height="18"/>
	<rect x="120" y="36" class="st0" width="18" height="18"/>
	<rect x="156" y="36" class="st0" width="18" height="18"/>
	<rect x="138" y="36" class="st0" width="18" height="18"/>
	<rect x="174" y="36" class="st0" width="18" height="18"/>
	<rect x="12" y="54" class="st0" width="18" height="18"/>
	<rect x="48" y="54" class="st0" width="18" height="18"/>
	<rect x="30" y="54" class="st0" width="18" height="18"/>
	<rect x="66" y="54" class="st0" width="18" height="18"/>
	<rect x="102" y="54" class="st0" width="18" height="18"/>
	<rect x="84" y="54" class="st0" width="18" height="18"/>
	<rect x="120" y="54" class="st0" width="18" height="18"/>
	<rect x="156" y="54" class="st0" width="18" height="18"/>
	<rect x="138" y="54" class="st0" width="18" height="18"/>
	<rect x="174" y="54" class="st0" width="18" height="18"/>
	<rect x="12" y="72" class="st0" width="18" height="18"/>
	<rect x="48" y="72" class="st0" width="18" height="18"/>
	<rect x="30" y="72" class="st0" width="18" height="18"/>
	<rect x="66" y="72" class="st0" width="18" height="18"/>
	<rect x="102" y="72" class="st0" width="18" height="18"/>
	<rect x="84" y="72" class="st0" width="18" height="18"/>
	<rect x="120" y="72" class="st0" width="18" height="18"/>
	<rect x="156" y="72" class="st0" width="18" height="18"/>
	<rect x="138" y="72" class="st0" width="18" height="18"/>
	<rect x="174" y="72" class="st0" width="18" height="18"/>
	<rect x="48" y="90" class="st0" width="18" height="18"/>
	<rect x="30" y="90" class="st0" width="18" height="18"/>
	<rect x="66" y="90" class="st0" width="18" height="18"/>
	<rect x="102" y="90" class="st0" width="18" height="18"/>
	<rect x="84" y="90" class="st0" width="18" height="18"/>
	<rect x="120" y="90" class="st0" width="18" height="18"/>
	<rect x="156" y="90" class="st0" width="18" height="18"/>
	<rect x="138" y="90" class="st0" width="18" height="18"/>
	<rect x="48" y="108" class="st0" width="18" height="18"/>
	<rect x="66" y="108" class="st0" width="18" height="18"/>
	<rect x="102" y="108" class="st0" width="18" height="18"/>
	<rect x="84" y="108" class="st0" width="18" height="18"/>
	<rect x="120" y="108" class="st0" width="18" height="18"/>
	<rect x="138" y="108" class="st0" width="18" height="18"/>
	<rect x="66" y="126" class="st0" width="18" height="18"/>
	<rect x="102" y="126" class="st0" width="18" height="18"/>
	<rect x="84" y="126" class="st0" width="18" height="18"/>
	<rect x="120" y="126" class="st0" width="18" height="18"/>
	<rect x="102" y="144.001" class="st0" width="18" height="18"/>
	<rect x="84" y="144.001" class="st0" width="18" height="18"/>
	<polygon class="st1" points="12,36 12,18 30,18 	"/>
	<polygon class="st1" points="12,54 12,36 30,36 	"/>
	<polygon class="st1" points="12,72 12,54 30,54 	"/>
	<polygon class="st1" points="12,90 12,72 30,72 	"/>
	<polygon class="st1" points="30,18 30,0 48,0 	"/>
	<polygon class="st1" points="30,36 30,18 48,18 	"/>
	<polygon class="st1" points="30,54 30,36 48,36 	"/>
	<polygon class="st1" points="30,72 30,54 48,54 	"/>
	<polygon class="st1" points="48,18 48,0 66,0 	"/>
	<polygon class="st1" points="48,36 48,18 66,18 	"/>
	<polygon class="st1" points="48,54 48,36 66,36 	"/>
	<polygon class="st1" points="48,72 48,54 66,54 	"/>
	<polygon class="st1" points="66,18 66,0 84,0 	"/>
	<polygon class="st1" points="66,36 66,18 84,18 	"/>
	<polygon class="st1" points="66,54 66,36 84,36 	"/>
	<polygon class="st1" points="66,72 66,54 84,54 	"/>
	<polygon class="st1" points="84,36 84,18 102,18 	"/>
	<polygon class="st1" points="84,54 84,36 102,36 	"/>
	<polygon class="st1" points="84,72 84,54 102,54 	"/>
	<polygon class="st1" points="84,90 84,72 102,72 	"/>
	<polygon class="st1" points="102,36 102,18 120,18 	"/>
	<polygon class="st1" points="102,54 102,36 120,36 	"/>
	<polygon class="st1" points="102,72 102,54 120,54 	"/>
	<polygon class="st1" points="102,90 102,72 120,72 	"/>
	<polygon class="st1" points="120,18 120,0 138,0 	"/>
	<polygon class="st1" points="120,36 120,18 138,18 	"/>
	<polygon class="st1" points="120,54 120,36 138,36 	"/>
	<polygon class="st1" points="120,72 120,54 138,54 	"/>
	<polygon class="st1" points="138,18 138,0 156,0 	"/>
	<polygon class="st1" points="138,36 138,18 156,18 	"/>
	<polygon class="st1" points="138,54 138,36 156,36 	"/>
	<polygon class="st1" points="138,72 138,54 156,54 	"/>
	<polygon class="st1" points="156,18 156,0 174,0 	"/>
	<polygon class="st1" points="156,36 156,18 174,18 	"/>
	<polygon class="st1" points="156,54 156,36 174,36 	"/>
	<polygon class="st1" points="156,72 156,54 174,54 	"/>
	<polygon class="st1" points="174,36 174,18 192,18 	"/>
	<polygon class="st1" points="174,54 174,36 192,36 	"/>
	<polygon class="st1" points="174,72 174,54 192,54 	"/>
	<polygon class="st1" points="174,90 174,72 192,72 	"/>
	<polygon class="st1" points="84,108 84,90 102,90 	"/>
	<polygon class="st1" points="84,126 84,108 102,108 	"/>
	<polygon class="st1" points="84,144 84,126 102,126 	"/>
	<polygon class="st1" points="84,162 84,144 102,144 	"/>
	<polygon class="st1" points="102,108 102,90 120,90 	"/>
	<polygon class="st1" points="102,126 102,108 120,108 	"/>
	<polygon class="st1" points="102,144 102,126 120,126 	"/>
	<polygon class="st1" points="102,162 102,144 120,144 	"/>
	<polygon class="st1" points="120,90 120,72 138,72 	"/>
	<polygon class="st1" points="120,108 120,90 138,90 	"/>
	<polygon class="st1" points="120,126 120,108 138,108 	"/>
	<polygon class="st1" points="120,144 120,126 138,126 	"/>
	<polygon class="st1" points="66,90 66,72 84,72 	"/>
	<polygon class="st1" points="66,108 66,90 84,90 	"/>
	<polygon class="st1" points="66,126 66,108 84,108 	"/>
	<polygon class="st1" points="66,144 66,126 84,126 	"/>
	<polygon class="st1" points="48,90 48,72 66,72 	"/>
	<polygon class="st1" points="48,108 48,90 66,90 	"/>
	<polygon class="st1" points="48,126 48,108 66,108 	"/>
	<polygon class="st1" points="138,90 138,72 156,72 	"/>
	<polygon class="st1" points="138,108 138,90 156,90 	"/>
	<polygon class="st1" points="138,126 138,108 156,108 	"/>
	<polygon class="st1" points="156,90 156,72 174,72 	"/>
	<polygon class="st1" points="156,108 156,90 174,90 	"/>
	<polygon class="st1" points="30,89.25 30,71.25 48,71.25 	"/>
	<polygon class="st1" points="30,107.25 30,89.25 48,89.25 	"/>
</g>
</svg>
