<?xml version="1.0" encoding="utf-8"?>
<!-- Generator: Adobe Illustrator 15.0.2, SVG Export Plug-In . SVG Version: 6.00 Build 0)  -->
<!DOCTYPE svg PUBLIC "-//W3C//DTD SVG 1.1//EN" "http://www.w3.org/Graphics/SVG/1.1/DTD/svg11.dtd">
<svg version="1.1" id="Layer_1" xmlns="http://www.w3.org/2000/svg" xmlns:xlink="http://www.w3.org/1999/xlink" x="0px" y="0px"
	 width="1320px" height="921.102px" viewBox="0 0 1320 921.102" style="enable-background:new 0 0 1320 921.102;"
	 xml:space="preserve">
<style type="text/css">
<![CDATA[
	.st0{fill:#5DD7FC;}
]]>
</style>
<path class="st0" d="M0,664.5c0,0,173.25,262.5,525.75,256.5c227.25-6.75,549.75-107.25,636-438.75c0,0,92.625,15.75,158.25-56.25
	c-89.625,12.375-149.25-15.75-149.25-15.75s117.375-3.375,143.25-72.75c-69.375,30-155.25,4.5-155.25,4.5S1118.25,93.75,871.5,84.75
	c0,0,131.875-26.875,111.25-57.25c-16.5-22.125-108.248,19-108.248,19S925.626,24,924.501,0c-51.75,6-99.249,44.25-99.249,44.25
	S839.751,21,840,11.25c-123.25,68.5-207,323.625-207,323.625s-31.25-34.625-83.25-72.125c-125.5-74-357-161.5-357-161.5
	s-15.5,95.5,108,165.5c-50.5,4-76,10.5-76,10.5s0,101.5,147.25,134.5c-68.25,2.501-90.75,36.5-90.75,36.5s38.5,90.501,159.5,83.001
	c-98.5,51-34.5,120.499,46,112.999C227.75,876.251,0,664.5,0,664.5z"/>
</svg>
