<?xml version="1.0" encoding="utf-8"?>
<!-- Generator: Adobe Illustrator 15.0.2, SVG Export Plug-In . SVG Version: 6.00 Build 0)  -->
<!DOCTYPE svg PUBLIC "-//W3C//DTD SVG 1.1//EN" "http://www.w3.org/Graphics/SVG/1.1/DTD/svg11.dtd">
<svg version="1.1" xmlns="http://www.w3.org/2000/svg" xmlns:xlink="http://www.w3.org/1999/xlink" x="0px" y="0px"
	 width="131.868px" height="84.837px" viewBox="28.361 49.151 131.868 84.837"
	 style="enable-background:new 28.361 49.151 131.868 84.837;" xml:space="preserve">
<style type="text/css">
<![CDATA[
	.st0{fill:#FFFFFF;stroke:#1485CC;stroke-width:3.75;stroke-linecap:round;stroke-linejoin:round;}
	.st1{fill:#7E131E;}
	.st2{fill:#BB2026;}
	.st3{fill:#FFFFFF;stroke:#1485CC;stroke-width:3.75;stroke-linejoin:round;}
	.st4{fill:none;stroke:#1485CC;stroke-width:3.75;stroke-linejoin:round;}
]]>
</style>
<g id="svg1468" inkscape:version="0.42" sodipodi:docbase="C:\Documents and Settings\Jarno\Omat tiedostot\vanhasta\opencliparts\omat\symbols" sodipodi:version="0.32" sodipodi:docname="mail1.svg" xmlns:rdf="http://www.w3.org/1999/02/22-rdf-syntax-ns#" xmlns:cc="http://web.resource.org/cc/" xmlns:sodipodi="http://inkscape.sourceforge.net/DTD/sodipodi-0.dtd" xmlns:dc="http://purl.org/dc/elements/1.1/" xmlns:inkscape="http://www.inkscape.org/namespaces/inkscape" xmlns:svg="http://www.w3.org/2000/svg">
	
		<sodipodi:namedview  id="base" inkscape:cx="93.750000" inkscape:cy="93.750000" inkscape:current-layer="svg1468" inkscape:pageopacity="0.0" inkscape:pageshadow="2" inkscape:window-height="480" inkscape:window-width="640" bordercolor="#666666" borderopacity="1.0" pagecolor="#ffffff" inkscape:zoom="1.8346667">
		</sodipodi:namedview>
	<g id="layer1">
		<g id="g2423" transform="matrix(0.810875,0.000000,0.000000,0.810875,5.909680,-403.3576)">
			<path id="rect2398" class="st0" d="M33,560.362H185c1.657,0,2.999,1.343,2.999,3v94.001c0,1.656-1.342,2.999-2.999,2.999H33
				c-1.657,0-3-1.343-3-2.999v-94.001C30,561.705,31.343,560.362,33,560.362z"/>
			<path id="path2400" class="st4" d="M32,658.363l76-56l79.999,57.999"/>
			<path id="path2402" class="st3" d="M31.935,561.05l75.769,59.969L186,560.394L31.935,561.05z"/>
		</g>
	</g>
</g>
<g id="Layer_2">
	<rect x="84.365" y="84.711" class="st1" width="2.173" height="2.173"/>
	<rect x="88.71" y="84.711" class="st1" width="2.173" height="2.173"/>
	<rect x="86.538" y="84.711" class="st1" width="2.172" height="2.173"/>
	<rect x="82.193" y="86.884" class="st1" width="2.172" height="2.172"/>
	<rect x="86.538" y="86.884" class="st1" width="2.172" height="2.172"/>
	<rect x="84.365" y="86.884" class="st1" width="2.173" height="2.172"/>
	<rect x="88.71" y="86.884" class="st1" width="2.173" height="2.172"/>
	<rect x="93.055" y="86.884" class="st1" width="2.173" height="2.172"/>
	<rect x="90.883" y="86.884" class="st1" width="2.172" height="2.172"/>
	<rect x="95.228" y="86.884" class="st1" width="2.172" height="2.172"/>
	<rect x="99.572" y="86.884" class="st1" width="2.172" height="2.172"/>
	<rect x="97.399" y="86.884" class="st1" width="2.173" height="2.172"/>
	<rect x="101.744" y="86.884" class="st1" width="2.173" height="2.172"/>
	<rect x="95.228" y="84.711" class="st1" width="2.172" height="2.173"/>
	<rect x="99.572" y="84.711" class="st1" width="2.172" height="2.173"/>
	<rect x="97.399" y="84.711" class="st1" width="2.173" height="2.173"/>
	<rect x="82.193" y="89.056" class="st1" width="2.172" height="2.173"/>
	<rect x="86.538" y="89.056" class="st1" width="2.172" height="2.173"/>
	<rect x="84.365" y="89.056" class="st1" width="2.173" height="2.173"/>
	<rect x="88.71" y="89.056" class="st1" width="2.173" height="2.173"/>
	<rect x="93.055" y="89.056" class="st1" width="2.173" height="2.173"/>
	<rect x="90.883" y="89.056" class="st1" width="2.172" height="2.173"/>
	<rect x="95.228" y="89.056" class="st1" width="2.172" height="2.173"/>
	<rect x="99.572" y="89.056" class="st1" width="2.172" height="2.173"/>
	<rect x="97.399" y="89.056" class="st1" width="2.173" height="2.173"/>
	<rect x="101.744" y="89.056" class="st1" width="2.173" height="2.173"/>
	<rect x="82.193" y="91.229" class="st1" width="2.172" height="2.172"/>
	<rect x="86.538" y="91.229" class="st1" width="2.172" height="2.172"/>
	<rect x="84.365" y="91.229" class="st1" width="2.173" height="2.172"/>
	<rect x="88.71" y="91.229" class="st1" width="2.173" height="2.172"/>
	<rect x="93.055" y="91.229" class="st1" width="2.173" height="2.172"/>
	<rect x="90.883" y="91.229" class="st1" width="2.172" height="2.172"/>
	<rect x="95.228" y="91.229" class="st1" width="2.172" height="2.172"/>
	<rect x="99.572" y="91.229" class="st1" width="2.172" height="2.172"/>
	<rect x="97.399" y="91.229" class="st1" width="2.173" height="2.172"/>
	<rect x="101.744" y="91.229" class="st1" width="2.173" height="2.172"/>
	<rect x="82.193" y="93.4" class="st1" width="2.172" height="2.173"/>
	<rect x="86.538" y="93.4" class="st1" width="2.172" height="2.173"/>
	<rect x="84.365" y="93.4" class="st1" width="2.173" height="2.173"/>
	<rect x="88.71" y="93.4" class="st1" width="2.173" height="2.173"/>
	<rect x="93.055" y="93.4" class="st1" width="2.173" height="2.173"/>
	<rect x="90.883" y="93.4" class="st1" width="2.172" height="2.173"/>
	<rect x="95.228" y="93.4" class="st1" width="2.172" height="2.173"/>
	<rect x="99.572" y="93.4" class="st1" width="2.172" height="2.173"/>
	<rect x="97.399" y="93.4" class="st1" width="2.173" height="2.173"/>
	<rect x="101.744" y="93.4" class="st1" width="2.173" height="2.173"/>
	<rect x="86.538" y="95.573" class="st1" width="2.172" height="2.172"/>
	<rect x="84.365" y="95.573" class="st1" width="2.173" height="2.172"/>
	<rect x="88.71" y="95.573" class="st1" width="2.173" height="2.172"/>
	<rect x="93.055" y="95.573" class="st1" width="2.173" height="2.172"/>
	<rect x="90.883" y="95.573" class="st1" width="2.172" height="2.172"/>
	<rect x="95.228" y="95.573" class="st1" width="2.172" height="2.172"/>
	<rect x="99.572" y="95.573" class="st1" width="2.172" height="2.172"/>
	<rect x="97.399" y="95.573" class="st1" width="2.173" height="2.172"/>
	<rect x="86.538" y="97.745" class="st1" width="2.172" height="2.173"/>
	<rect x="88.71" y="97.745" class="st1" width="2.173" height="2.173"/>
	<rect x="93.055" y="97.745" class="st1" width="2.173" height="2.173"/>
	<rect x="90.883" y="97.745" class="st1" width="2.172" height="2.173"/>
	<rect x="95.228" y="97.745" class="st1" width="2.172" height="2.173"/>
	<rect x="97.399" y="97.745" class="st1" width="2.173" height="2.173"/>
	<rect x="88.71" y="99.918" class="st1" width="2.173" height="2.172"/>
	<rect x="93.055" y="99.918" class="st1" width="2.173" height="2.172"/>
	<rect x="90.883" y="99.918" class="st1" width="2.172" height="2.172"/>
	<rect x="95.228" y="99.918" class="st1" width="2.172" height="2.172"/>
	<rect x="93.055" y="102.09" class="st1" width="2.173" height="2.173"/>
	<rect x="90.883" y="102.09" class="st1" width="2.172" height="2.173"/>
	<polygon class="st2" points="82.193,89.056 82.193,86.884 84.365,86.884 	"/>
	<polygon class="st2" points="82.193,91.229 82.193,89.056 84.365,89.056 	"/>
	<polygon class="st2" points="82.193,93.4 82.193,91.229 84.365,91.229 	"/>
	<polygon class="st2" points="82.193,95.573 82.193,93.4 84.365,93.4 	"/>
	<polygon class="st2" points="84.365,86.884 84.365,84.711 86.538,84.711 	"/>
	<polygon class="st2" points="84.365,89.056 84.365,86.884 86.538,86.884 	"/>
	<polygon class="st2" points="84.365,91.229 84.365,89.056 86.538,89.056 	"/>
	<polygon class="st2" points="84.365,93.4 84.365,91.229 86.538,91.229 	"/>
	<polygon class="st2" points="86.538,86.884 86.538,84.711 88.71,84.711 	"/>
	<polygon class="st2" points="86.538,89.056 86.538,86.884 88.71,86.884 	"/>
	<polygon class="st2" points="86.538,91.229 86.538,89.056 88.71,89.056 	"/>
	<polygon class="st2" points="86.538,93.4 86.538,91.229 88.71,91.229 	"/>
	<polygon class="st2" points="88.71,86.884 88.71,84.711 90.883,84.711 	"/>
	<polygon class="st2" points="88.71,89.056 88.71,86.884 90.883,86.884 	"/>
	<polygon class="st2" points="88.71,91.229 88.71,89.056 90.883,89.056 	"/>
	<polygon class="st2" points="88.71,93.4 88.71,91.229 90.883,91.229 	"/>
	<polygon class="st2" points="90.883,89.056 90.883,86.884 93.055,86.884 	"/>
	<polygon class="st2" points="90.883,91.229 90.883,89.056 93.055,89.056 	"/>
	<polygon class="st2" points="90.883,93.4 90.883,91.229 93.055,91.229 	"/>
	<polygon class="st2" points="90.883,95.573 90.883,93.4 93.055,93.4 	"/>
	<polygon class="st2" points="93.055,89.056 93.055,86.884 95.228,86.884 	"/>
	<polygon class="st2" points="93.055,91.229 93.055,89.056 95.228,89.056 	"/>
	<polygon class="st2" points="93.055,93.4 93.055,91.229 95.228,91.229 	"/>
	<polygon class="st2" points="93.055,95.573 93.055,93.4 95.228,93.4 	"/>
	<polygon class="st2" points="95.228,86.884 95.228,84.711 97.399,84.711 	"/>
	<polygon class="st2" points="95.228,89.056 95.228,86.884 97.399,86.884 	"/>
	<polygon class="st2" points="95.228,91.229 95.228,89.056 97.399,89.056 	"/>
	<polygon class="st2" points="95.228,93.4 95.228,91.229 97.399,91.229 	"/>
	<polygon class="st2" points="97.399,86.884 97.399,84.711 99.572,84.711 	"/>
	<polygon class="st2" points="97.399,89.056 97.399,86.884 99.572,86.884 	"/>
	<polygon class="st2" points="97.399,91.229 97.399,89.056 99.572,89.056 	"/>
	<polygon class="st2" points="97.399,93.4 97.399,91.229 99.572,91.229 	"/>
	<polygon class="st2" points="99.572,86.884 99.572,84.711 101.744,84.711 	"/>
	<polygon class="st2" points="99.572,89.056 99.572,86.884 101.744,86.884 	"/>
	<polygon class="st2" points="99.572,91.229 99.572,89.056 101.744,89.056 	"/>
	<polygon class="st2" points="99.572,93.4 99.572,91.229 101.744,91.229 	"/>
	<polygon class="st2" points="101.744,89.056 101.744,86.884 103.917,86.884 	"/>
	<polygon class="st2" points="101.744,91.229 101.744,89.056 103.917,89.056 	"/>
	<polygon class="st2" points="101.744,93.4 101.744,91.229 103.917,91.229 	"/>
	<polygon class="st2" points="101.744,95.573 101.744,93.4 103.917,93.4 	"/>
	<polygon class="st2" points="90.883,97.745 90.883,95.573 93.055,95.573 	"/>
	<polygon class="st2" points="90.883,99.918 90.883,97.745 93.055,97.745 	"/>
	<polygon class="st2" points="90.883,102.09 90.883,99.918 93.055,99.918 	"/>
	<polygon class="st2" points="90.883,104.263 90.883,102.09 93.055,102.09 	"/>
	<polygon class="st2" points="93.055,97.745 93.055,95.573 95.228,95.573 	"/>
	<polygon class="st2" points="93.055,99.918 93.055,97.745 95.228,97.745 	"/>
	<polygon class="st2" points="93.055,102.09 93.055,99.918 95.228,99.918 	"/>
	<polygon class="st2" points="93.055,104.263 93.055,102.09 95.228,102.09 	"/>
	<polygon class="st2" points="95.228,95.573 95.228,93.4 97.399,93.4 	"/>
	<polygon class="st2" points="95.228,97.745 95.228,95.573 97.399,95.573 	"/>
	<polygon class="st2" points="95.228,99.918 95.228,97.745 97.399,97.745 	"/>
	<polygon class="st2" points="95.228,102.09 95.228,99.918 97.399,99.918 	"/>
	<polygon class="st2" points="88.71,95.573 88.71,93.4 90.883,93.4 	"/>
	<polygon class="st2" points="88.71,97.745 88.71,95.573 90.883,95.573 	"/>
	<polygon class="st2" points="88.71,99.918 88.71,97.745 90.883,97.745 	"/>
	<polygon class="st2" points="88.71,102.09 88.71,99.918 90.883,99.918 	"/>
	<polygon class="st2" points="86.538,95.573 86.538,93.4 88.71,93.4 	"/>
	<polygon class="st2" points="86.538,97.745 86.538,95.573 88.71,95.573 	"/>
	<polygon class="st2" points="86.538,99.918 86.538,97.745 88.71,97.745 	"/>
	<polygon class="st2" points="97.399,95.573 97.399,93.4 99.572,93.4 	"/>
	<polygon class="st2" points="97.399,97.745 97.399,95.573 99.572,95.573 	"/>
	<polygon class="st2" points="97.399,99.918 97.399,97.745 99.572,97.745 	"/>
	<polygon class="st2" points="99.572,95.573 99.572,93.4 101.744,93.4 	"/>
	<polygon class="st2" points="99.572,97.745 99.572,95.573 101.744,95.573 	"/>
	<polygon class="st2" points="84.365,95.482 84.365,93.31 86.538,93.31 	"/>
	<polygon class="st2" points="84.365,97.655 84.365,95.482 86.538,95.482 	"/>
</g>
</svg>
